#!OML:ASF H:\Terrain\Patient Classification 1\Walking\steve\steve.ASF
:FULLY-SPECIFIED
:DEGREES
201
root 9.47858 15.9186 17.8406 4.95782 0.427187 3.03797
lowerback 2.73957 0.489939 -2.59638
upperback -1.42333 0.578356 1.0073
thorax -3.03764 0.351594 2.46285
lowerneck -9.7889 -1.13911 -2.7107
upperneck 11.0373 -1.26802 1.08159
head 4.94582 -0.663904 0.687297
rclavicle -2.52457e-014 -7.95139e-016
rhumerus -75.6283 -37.0206 -22.6606
rradius 14.0869
rwrist 45.7884
rhand -17.9423 -37.1073
rfingers 7.12502
rthumb 8.32606 -66.9232
lclavicle -2.52457e-014 -7.95139e-016
lhumerus -18.7906 -13.1178 88.2055
lradius 59.9558
lwrist 27.1453
lhand -28.854 -17.4919
lfingers 7.12502
lthumb -2.2107 12.4764
rfemur -43.0589 2.32511 21.1248
rtibia 47.5198
rfoot -8.8564 5.86812
rtoes -0.273815
lfemur 8.95105 0.190354 -25.0039
ltibia 40.6195
lfoot 19.6616 7.75377
ltoes 13.1345
202
root 9.47873 15.935 18.0872 4.63319 0.469033 2.29412
lowerback 2.95559 0.522703 -1.85051
upperback -1.34457 0.657086 1.29565
thorax -3.07696 0.378518 2.33527
lowerneck -10.021 -1.1768 -2.44121
upperneck 11.5106 -1.31951 0.80922
head 5.12894 -0.697151 0.553391
rclavicle 1.41137e-014 -4.77083e-015
rhumerus -72.998 -36.3573 -26.6779
rradius 14.5812
rwrist 42.5945
rhand -18.0828 -38.5068
rfingers 7.12502
rthumb 8.19039 -68.3281
lclavicle 1.41137e-014 -4.77083e-015
lhumerus -19.4088 -12.7068 88.6046
lradius 59.206
lwrist 27.4213
lhand -28.7426 -16.8165
lfingers 7.12502
lthumb -2.1031 13.1528
rfemur -41.8433 2.6076 21.9479
rtibia 48.0964
rfoot -9.83451 6.14979
rtoes 2.27475
lfemur 7.35584 0.110459 -24.1281
ltibia 44.5781
lfoot 18.4238 11.0269
ltoes 14.587
203
root 9.473 15.9538 18.3377 4.31711 0.561334 1.78075
lowerback 3.12114 0.549063 -1.38532
upperback -1.33004 0.716517 1.5
thorax -3.15507 0.401595 2.2799
lowerneck -9.70431 -1.26029 -2.53125
upperneck 11.7473 -1.43725 0.881652
head 5.15231 -0.755596 0.58331
rclavicle 1.55797e-014 1.59028e-015
rhumerus -71.0511 -35.9645 -29.4293
rradius 14.7478
rwrist 40.5339
rhand -18.5426 -37.9028
rfingers 7.12502
rthumb 7.74667 -67.7409
lclavicle 1.55797e-014 1.59028e-015
lhumerus -20.1684 -12.512 89.0563
lradius 58.3375
lwrist 27.6855
lhand -28.9006 -15.8923
lfingers 7.12502
lthumb -2.25569 14.0755
rfemur -40.4913 2.64539 22.6282
rtibia 48.3023
rfoot -10.9084 6.18796
rtoes 2.23775
lfemur 5.66268 -0.0307782 -23.5454
ltibia 48.507
lfoot 16.365 13.2036
ltoes 15.807
204
root 9.45705 15.9782 18.5711 4.17042 0.690226 1.00048
lowerback 3.32751 0.625735 -0.710593
upperback -1.3562 0.856424 1.73901
thorax -3.29891 0.461279 2.13687
lowerneck -9.43966 -1.40679 -2.72781
upperneck 11.8836 -1.66135 1.23909
head 5.15845 -0.851179 0.711674
rclavicle 1.44119e-014 -1.51076e-014
rhumerus -69.6629 -36.1917 -31.2478
rradius 14.9138
rwrist 39.4022
rhand -19.2016 -36.0837
rfingers 7.12502
rthumb 7.11057 -65.9442
lclavicle 1.44119e-014 -1.51076e-014
lhumerus -20.7969 -12.6156 89.5469
lradius 57.2949
lwrist 28.1623
lhand -29.0565 -15.1186
lfingers 7.12502
lthumb -2.40631 14.8476
rfemur -39.2964 2.72667 23.6341
rtibia 48.2724
rfoot -11.9627 6.15798
rtoes 2.23138
lfemur 3.53761 0.0206571 -22.4729
ltibia 52.3549
lfoot 14.754 13.0364
ltoes 13.2085
205
root 9.44488 16.0004 18.802 4.05854 0.914175 0.283515
lowerback 3.42735 0.680311 -0.0908181
upperback -1.31214 0.966611 1.9994
thorax -3.30873 0.50575 2.0495
lowerneck -9.69307 -1.50192 -3.01347
upperneck 12.3702 -1.79373 1.61281
head 5.36127 -0.903809 0.863002
rclavicle 5.44173e-015 8.74653e-015
rhumerus -67.9468 -36.3726 -33.453
rradius 15.3174
rwrist 38.0051
rhand -19.3896 -36.3133
rfingers 7.12502
rthumb 6.92906 -66.1799
lclavicle 5.44173e-015 8.74653e-015
lhumerus -21.1666 -12.631 90.0511
lradius 55.8579
lwrist 28.1985
lhand -29.0066 -15.2825
lfingers 7.12502
lthumb -2.35807 14.6842
rfemur -38.0761 2.71438 24.5388
rtibia 48.1422
rfoot -12.9879 6.43105
rtoes 3.17293
lfemur 1.34758 0.38524 -21.2655
ltibia 56.0108
lfoot 12.8433 11.7156
ltoes 11.4483
206
root 9.44486 16.0194 19.0445 3.88361 1.06769 -0.0196003
lowerback 3.43171 0.720973 0.185857
upperback -1.25705 1.03804 2.15954
thorax -3.25518 0.536874 2.05497
lowerneck -10.0988 -1.50115 -2.92868
upperneck 13.1113 -1.76353 1.36417
head 5.65826 -0.90332 0.770269
rclavicle 7.1811e-015 2.62396e-014
rhumerus -65.8097 -36.1481 -36.0372
rradius 15.6503
rwrist 36.1533
rhand -18.9088 -37.7083
rfingers 7.12502
rthumb 7.39314 -67.5592
lclavicle 7.1811e-015 2.62396e-014
lhumerus -21.5383 -12.6486 90.5117
lradius 54.1687
lwrist 27.8422
lhand -28.9555 -15.584
lfingers 7.12502
lthumb -2.30871 14.3833
rfemur -36.7219 2.48659 24.9862
rtibia 47.9188
rfoot -13.8271 6.95237
rtoes 4.03634
lfemur -0.592914 0.775609 -20.6938
ltibia 59.3374
lfoot 10.9906 9.6284
ltoes 8.88341
207
root 9.44444 16.0497 19.2852 3.81559 1.05753 -0.370284
lowerback 3.39067 0.833074 0.501248
upperback -1.28084 1.20752 2.32336
thorax -3.25983 0.61675 2.0367
lowerneck -10.3866 -1.63663 -2.54448
upperneck 13.7917 -1.8921 0.615376
head 5.91352 -1.00385 0.457886
rclavicle 3.10601e-015 3.97569e-015
rhumerus -65.0741 -37.213 -35.8954
rradius 15.5002
rwrist 36.7073
rhand -18.2903 -37.4614
rfingers 7.12502
rthumb 7.99013 -67.2904
lclavicle 3.10601e-015 3.97569e-015
lhumerus -22.0253 -12.6927 91.1005
lradius 52.3564
lwrist 27.471
lhand -28.9373 -15.5425
lfingers 7.12502
lthumb -2.29111 14.425
rfemur -35.4532 2.33161 25.4768
rtibia 47.6013
rfoot -14.4984 7.39582
rtoes 4.77734
lfemur -2.7394 1.25405 -20.1607
ltibia 62.2891
lfoot 9.66683 6.69367
ltoes -2.15031
208
root 9.44059 16.0959 19.5236 3.92588 1.05493 -0.856893
lowerback 3.08463 0.974065 0.979014
upperback -1.2851 1.41454 2.45593
thorax -3.09044 0.711545 1.89726
lowerneck -10.2112 -1.88899 -2.47164
upperneck 13.8667 -2.21196 0.356638
head 5.90872 -1.17567 0.339445
rclavicle -1.69961e-014 -3.4191e-014
rhumerus -64.1897 -38.4216 -36.1641
rradius 15.3891
rwrist 37.1251
rhand -17.8994 -37.2266
rfingers 7.12502
rthumb 8.36745 -67.0409
lclavicle -1.69961e-014 -3.4191e-014
lhumerus -22.4228 -12.5717 91.6606
lradius 50.3453
lwrist 26.7231
lhand -28.5707 -15.7073
lfingers 7.12502
lthumb -1.93705 14.2636
rfemur -34.3173 2.21413 26.1063
rtibia 47.2243
rfoot -15.3151 7.58573
rtoes 3.90595
lfemur -5.1773 1.59203 -19.4876
ltibia 64.8161
lfoot 8.16974 5.07997
ltoes -8.61157
209
root 9.43524 16.1404 19.7618 4.0178 1.01741 -1.38044
lowerback 3.02615 1.14548 1.52489
upperback -1.4843 1.67378 2.53291
thorax -3.25717 0.830307 1.65519
lowerneck -10.4129 -1.71655 -2.52282
upperneck 14.8678 -2.03361 0.788549
head 6.26207 -1.06144 0.494214
rclavicle -3.85145e-015 3.97569e-015
rhumerus -60.9664 -36.7677 -41.1924
rradius 16.1107
rwrist 32.9664
rhand -18.0121 -37.5231
rfingers 7.12502
rthumb 8.25869 -67.3417
lclavicle -3.85145e-015 3.97569e-015
lhumerus -23.1886 -12.5469 92.1351
lradius 48.3784
lwrist 26.0358
lhand -27.6711 -15.8458
lfingers 7.12502
lthumb -1.06822 14.1312
rfemur -33.1429 2.09866 26.7879
rtibia 46.8645
rfoot -16.2921 7.64377
rtoes 0.833364
lfemur -7.4367 1.82469 -18.8148
ltibia 66.8608
lfoot 6.24697 4.93776
ltoes -6.037
210
root 9.42636 16.1767 19.9897 3.96822 0.687932 -1.72025
lowerback 3.31494 1.37188 1.74436
upperback -1.75234 2.00829 2.6265
thorax -3.70026 0.991454 1.59964
lowerneck -9.43601 -1.87685 -2.60996
upperneck 14.7542 -2.24121 0.647402
head 6.06074 -1.1801 0.4554
rclavicle 3.11098e-014 3.10104e-014
rhumerus -58.8502 -35.8964 -44.1301
rradius 16.6056
rwrist 30.616
rhand -18.8848 -35.9465
rfingers 7.12502
rthumb 7.41633 -65.7965
lclavicle 3.11098e-014 3.10104e-014
lhumerus -24.1786 -12.4733 92.594
lradius 46.433
lwrist 25.2993
lhand -26.731 -15.7867
lfingers 7.12502
lthumb -0.160237 14.193
rfemur -31.9513 2.36344 27.2374
rtibia 46.5763
rfoot -17.1766 7.68944
rtoes -1.55928
lfemur -9.36376 2.49685 -18.3229
ltibia 68.4589
lfoot 4.24258 4.972
ltoes -4.27309
